<svg xmlns="http://www.w3.org/2000/svg" version="1.1" xmlns:xlink="http://www.w3.org/1999/xlink" xmlns:svgjs="http://svgjs.com/svgjs" width="1446" height="560" preserveAspectRatio="none" viewBox="0 0 1446 560"><g mask="url(&quot;#SvgjsMask1060&quot;)" fill="none"><rect width="1446" height="560" x="0" y="0" fill="rgba(19, 19, 20, 1)"></rect><path d="M531.67 589.11C704.43 571.98 791.76 216.35 1109.42 203.85 1427.08 191.35 1538.22 59.36 1687.17 58.25" stroke="rgba(51,121,194,0.58)" stroke-width="2"></path><path d="M536.57 641.5C643.63 630.49 597.66 412.51 892.99 400.04 1188.31 387.57 1415.9 141 1605.82 136.84" stroke="rgba(51,121,194,0.58)" stroke-width="2"></path><path d="M700.8 587.33C800.15 556.84 738.95 288.14 972.37 272.59 1205.8 257.04 1374.94 128.25 1515.52 126.99" stroke="rgba(51,121,194,0.58)" stroke-width="2"></path><path d="M603.71 601.75C727.47 548.18 671.29 162.92 913.41 160.09 1155.54 157.26 1372.38 326.61 1532.82 328.09" stroke="rgba(51,121,194,0.58)" stroke-width="2"></path><path d="M494.83 632.08C653.34 600.79 725.24 197.42 971.28 195.44 1217.31 193.46 1319.5 382.36 1447.72 385.84" stroke="rgba(51,121,194,0.58)" stroke-width="2"></path></g><defs><mask id="SvgjsMask1060"><rect width="1446" height="560" fill="#ffffff"></rect></mask></defs></svg>